<?xml version="1.0" standalone="no"?>
<!DOCTYPE svg PUBLIC "-//W3C//DTD SVG 20010904//EN"
 "http://www.w3.org/TR/2001/REC-SVG-20010904/DTD/svg10.dtd">
<svg version="1.0" xmlns="http://www.w3.org/2000/svg"
 width="786.000000pt" height="466.000000pt" viewBox="0 0 786.000000 466.000000"
 preserveAspectRatio="xMidYMid meet">

<g transform="translate(0.000000,466.000000) scale(0.100000,-0.100000)"
fill="#000000" stroke="none">
<path d="M3111 4301 c-6 -11 -11 -37 -11 -58 0 -58 28 -203 43 -227 11 -16 11
-25 3 -38 -16 -27 5 -42 48 -34 57 11 113 99 80 127 -14 11 -20 8 -48 -26
l-33 -38 -11 69 c-6 38 -14 102 -18 141 -5 50 -12 77 -25 89 -16 14 -18 14
-28 -5z"/>
<path d="M4543 4248 c-19 -24 -24 -58 -17 -114 7 -58 29 -93 47 -75 14 14 9
173 -7 189 -10 11 -15 11 -23 0z"/>
<path d="M6948 4154 c-230 -35 -498 -121 -771 -245 -128 -59 -492 -248 -612
-319 -324 -190 -681 -431 -840 -567 -78 -66 -145 -122 -150 -125 -6 -4 -9 11
-7 37 3 38 0 45 -27 64 -24 18 -91 115 -91 134 0 2 15 8 34 11 42 8 49 16 77
91 12 32 42 88 66 123 46 68 53 96 26 110 -24 13 -155 24 -177 16 -9 -4 -40
-40 -68 -81 l-50 -75 -19 32 c-23 37 -89 69 -142 70 -30 0 -40 -5 -48 -24 -15
-32 -6 -67 27 -105 l26 -31 -24 8 c-14 5 -34 30 -51 64 -24 47 -27 60 -17 78
31 58 -16 108 -103 109 -63 1 -244 -26 -276 -42 -14 -6 -32 -24 -40 -39 -14
-25 -14 -30 2 -57 22 -38 22 -63 -4 -113 -14 -28 -17 -44 -10 -51 13 -13 61
-12 122 4 56 15 190 0 289 -30 l55 -17 -100 -9 c-135 -11 -152 -11 -209 10
-42 16 -57 17 -106 7 -75 -16 -122 -15 -220 4 l-83 15 -37 -36 c-23 -23 -50
-38 -73 -42 -25 -4 -37 -11 -37 -21 0 -10 -19 2 -51 33 -93 92 -147 248 -116
335 20 57 47 52 123 -24 36 -36 80 -76 97 -88 62 -42 87 -71 87 -100 0 -38 46
-58 133 -58 53 0 67 4 85 23 12 13 22 30 22 39 0 8 7 29 16 47 15 30 15 34 -8
66 -41 61 -105 60 -176 -1 -41 -35 -45 -36 -70 -23 -14 8 -65 52 -113 99 -99
98 -143 126 -182 116 -29 -7 -61 -59 -72 -116 -8 -46 11 -163 34 -209 31 -60
110 -162 140 -178 27 -16 27 -17 9 -35 -13 -13 -17 -26 -12 -41 9 -33 49 -96
91 -147 43 -51 35 -46 -97 65 -110 92 -356 284 -480 372 -199 143 -402 253
-635 344 -68 26 -117 51 -129 66 -37 47 -281 152 -506 218 -269 78 -688 149
-841 143 -72 -3 -74 -4 -77 -30 -2 -19 3 -30 18 -38 21 -11 290 -74 367 -86
84 -12 34 -15 -69 -4 -132 15 -252 44 -333 81 -36 16 -78 29 -95 29 -28 0 -29
2 -18 20 17 27 -2 45 -37 36 -38 -10 -113 -83 -141 -138 -92 -181 81 -476 501
-856 303 -274 487 -394 660 -428 44 -9 105 -27 135 -41 59 -26 156 -42 260
-43 83 -1 133 -12 175 -41 41 -29 33 -34 -71 -44 -349 -34 -475 -130 -423
-320 16 -58 91 -127 266 -242 329 -217 508 -273 869 -273 119 0 157 -4 245
-26 137 -35 247 -31 327 10 56 28 70 49 98 146 l13 45 -5 -50 c-3 -27 0 -56 5
-64 11 -17 28 -13 166 46 l90 38 188 -2 c161 -2 189 0 194 13 4 12 8 10 18 -8
9 -18 9 -26 -1 -38 -7 -8 -17 -31 -22 -50 l-10 -35 -1 37 c-1 55 -14 59 -186
61 -186 2 -371 -56 -419 -131 -62 -95 -56 -149 14 -139 19 3 105 22 190 42
117 27 177 36 245 36 116 0 155 7 156 28 0 12 2 11 8 -4 11 -27 58 -32 196
-22 146 11 271 4 315 -16 35 -16 34 -17 -60 -11 -233 12 -353 10 -387 -9 -24
-13 -33 -25 -33 -43 0 -14 -4 -22 -10 -19 -5 3 -10 14 -10 24 0 26 -36 55 -57
46 -10 -3 -76 -11 -148 -16 -263 -18 -415 -48 -415 -80 0 -10 -12 -24 -27 -31
-47 -22 -79 -104 -118 -303 -46 -236 -65 -301 -125 -444 -53 -125 -59 -155
-36 -164 37 -14 211 146 246 225 20 46 57 232 87 435 l17 120 41 -4 c30 -4 64
4 135 32 133 51 212 57 316 21 94 -33 124 -29 124 15 0 25 3 28 18 21 40 -22
309 -52 456 -52 l93 0 13 -98 c11 -84 10 -111 -4 -200 -21 -132 -21 -214 0
-254 21 -41 111 -136 146 -154 35 -18 82 -18 98 1 19 23 7 84 -33 173 -45 96
-42 85 -67 277 -28 218 -49 327 -66 346 -9 10 -16 44 -18 90 -6 116 -46 210
-97 228 -19 6 -107 11 -213 11 -100 0 -201 5 -226 10 -96 21 -94 20 -81 33 17
17 337 22 427 8 38 -7 87 -15 108 -18 30 -5 52 -18 90 -57 76 -76 133 -101
231 -101 86 1 142 20 199 68 28 23 32 23 74 11 76 -23 163 -28 203 -11 26 10
41 12 54 5 11 -7 65 -8 139 -5 207 9 320 51 501 186 125 94 205 178 287 301
39 58 79 115 91 127 20 22 20 23 2 63 -23 51 -59 77 -138 102 -33 10 -65 22
-71 27 -6 5 -72 12 -146 15 -74 4 -155 11 -180 14 l-45 7 140 49 c200 69 355
138 427 189 35 25 133 80 218 122 207 104 245 131 383 278 65 69 161 158 214
199 108 82 137 119 231 308 65 129 109 283 98 343 -9 47 -99 133 -150 142 -50
10 -121 -18 -167 -65 -31 -33 -42 -37 -100 -43 l-64 -6 58 19 c32 10 66 25 75
33 9 8 25 17 35 20 26 9 17 40 -13 48 -40 11 -168 8 -262 -7z m-6572 -177
c-27 -36 -36 -96 -13 -98 6 -1 1 -4 -13 -8 -26 -7 -37 -34 -39 -94 -1 -38 1
-40 49 -51 23 -5 25 -10 25 -54 0 -81 2 -82 196 -78 93 1 167 1 165 -1 -2 -2
-64 -7 -138 -12 -108 -6 -141 -12 -161 -27 -35 -25 -34 -50 4 -70 30 -15 35
-14 113 10 53 17 134 31 233 41 170 17 206 26 201 53 -3 14 -17 18 -78 23 -41
3 -67 6 -56 7 10 1 36 7 57 14 42 12 53 39 23 56 -11 6 13 11 77 16 150 11
450 -34 633 -95 86 -29 251 -107 243 -116 -3 -2 -38 9 -78 25 -189 75 -393
115 -414 82 -15 -24 16 -38 78 -38 44 0 85 -9 143 -30 117 -43 120 -45 89 -62
-16 -8 -25 -22 -25 -37 0 -19 5 -23 30 -23 28 0 195 -68 187 -76 -2 -2 -44 10
-93 27 -49 16 -138 43 -197 60 -173 47 -260 102 -102 64 33 -8 77 -14 98 -15
31 0 37 3 37 20 0 30 -39 41 -184 50 -109 7 -133 6 -153 -7 -13 -8 -23 -23
-23 -32 0 -14 -14 -17 -92 -19 -51 -1 -106 2 -123 7 -16 5 -23 10 -15 10 8 1
41 3 73 6 82 5 212 70 212 106 0 32 -17 30 -170 -14 -66 -20 -133 -38 -148
-42 -32 -6 -47 -33 -26 -46 21 -14 -13 -36 -75 -48 -303 -55 -356 -71 -356
-102 0 -30 17 -31 67 -5 26 14 71 30 98 35 70 14 225 23 200 12 -26 -11 -243
-64 -270 -65 -14 -1 -21 -9 -23 -30 -3 -23 6 -38 44 -77 27 -27 57 -49 68 -49
11 0 40 19 63 43 36 35 62 48 150 77 107 35 144 61 114 79 -11 7 -6 11 20 15
174 29 205 38 211 60 2 7 103 -23 263 -77 143 -48 248 -85 233 -82 -14 3 -67
14 -117 26 -51 11 -98 18 -106 15 -26 -9 -16 -36 18 -52 l32 -15 -34 7 c-62
11 -110 -40 -62 -66 46 -24 131 -4 131 31 0 14 5 19 14 16 8 -3 30 -9 48 -12
28 -5 33 -10 33 -36 l0 -29 -150 1 c-139 0 -148 1 -127 16 22 16 30 47 13 57
-5 3 -11 19 -13 34 -3 25 0 31 25 40 55 21 13 66 -51 54 -20 -4 -23 -10 -20
-33 l5 -29 -71 -1 c-98 0 -167 -13 -182 -33 -7 -10 -15 -13 -18 -7 -10 15 -34
2 -42 -22 -9 -29 -33 -46 -64 -47 l-25 0 25 13 c38 19 32 41 -12 45 -59 5
-247 -78 -248 -109 0 -12 32 -20 44 -10 6 5 37 16 68 25 32 9 65 19 75 22 10
3 -11 -9 -47 -26 -70 -33 -100 -56 -100 -75 0 -19 31 -27 44 -11 9 11 97 46
115 46 3 0 -15 -14 -41 -31 -28 -18 -48 -39 -48 -49 0 -22 19 -30 43 -18 12 6
17 5 17 -5 0 -7 11 -24 25 -37 20 -19 32 -22 77 -18 97 9 263 96 243 129 -5 6
-20 8 -39 5 -17 -4 -76 -13 -131 -21 -55 -8 -113 -19 -129 -25 -16 -6 -31 -8
-34 -6 -9 10 93 66 122 68 17 2 174 3 348 3 227 0 320 3 329 12 8 8 28 0 82
-35 55 -35 83 -47 122 -50 94 -8 129 61 48 95 -20 8 -70 21 -112 29 -65 13
-130 39 -119 49 1 2 26 -1 53 -6 28 -5 75 -9 105 -8 30 0 76 -2 103 -6 43 -7
47 -6 47 13 0 14 -11 27 -32 38 -18 10 -27 19 -20 21 27 10 10 40 -40 71 -48
29 -50 32 -21 26 38 -7 54 15 32 43 -11 13 -11 17 -2 20 18 6 16 48 -3 89 -21
43 -77 77 -169 99 -38 9 -86 26 -105 37 -19 10 -27 17 -17 14 10 -3 51 -9 90
-13 40 -3 81 -12 92 -19 11 -7 61 -24 112 -38 274 -77 673 -331 1153 -737 134
-113 167 -147 203 -210 l27 -47 -47 14 c-106 32 -144 5 -109 -77 6 -15 -8 -17
-121 -23 -214 -12 -332 -25 -361 -40 -26 -13 -46 -13 -183 5 -84 11 -155 21
-156 23 -2 2 45 6 104 10 131 9 393 41 494 60 101 20 131 32 127 54 -5 26 -53
26 -164 -2 -147 -36 -499 -76 -675 -76 -65 0 -276 29 -330 46 -9 2 -23 -2 -31
-10 -18 -17 -34 -8 -35 19 0 11 -3 27 -7 36 -5 12 -1 18 13 22 49 12 4 59
-112 117 -86 43 -117 49 -137 25 -16 -20 -11 -25 77 -85 65 -44 116 -98 80
-84 -9 3 -19 14 -22 25 -9 26 -31 24 -51 -6 -16 -25 -20 -25 -63 4 -12 8 -12
12 -2 25 32 38 -20 63 -54 26 -19 -21 -50 -27 -60 -11 -3 6 2 14 11 19 10 6
15 16 11 26 -13 34 -117 9 -117 -29 0 -21 46 -53 114 -77 33 -13 53 -24 44
-26 -9 -2 -50 10 -90 26 -41 16 -109 37 -153 46 -146 30 -281 111 -500 298
-299 255 -510 491 -598 667 -38 76 -42 92 -42 156 0 61 4 77 28 114 22 33 78
81 95 81 2 0 -8 -15 -22 -33z m6217 26 c6 -6 -334 -124 -341 -118 -7 6 293
118 329 124 3 1 9 -2 12 -6z m214 1 c-3 -3 -12 -4 -19 -1 -8 3 -5 6 6 6 11 1
17 -2 13 -5z m-129 -37 c-53 -18 -103 -37 -109 -44 -16 -16 3 -39 39 -46 47
-9 245 12 297 32 28 10 97 26 155 35 58 10 123 24 145 33 54 22 220 24 256 4
26 -15 26 -15 13 -72 -37 -157 -132 -346 -222 -438 l-62 -64 -23 24 -22 24 37
6 c59 9 92 52 51 65 -10 3 -40 15 -68 27 -43 18 -76 21 -240 25 -201 4 -249
-3 -243 -36 2 -9 19 -22 38 -29 26 -9 29 -12 13 -12 -30 -1 -37 -18 -20 -45
11 -16 32 -26 74 -35 31 -6 100 -32 151 -57 65 -31 100 -43 115 -38 20 6 19 3
-7 -25 -20 -20 -39 -31 -58 -31 -30 0 -35 9 -17 27 21 21 1 40 -78 72 -79 32
-127 39 -138 21 -3 -5 -17 -10 -30 -10 -13 0 -28 -7 -32 -15 -9 -15 -39 -10
-100 18 -38 17 -28 37 17 37 36 0 40 3 40 25 0 20 -6 25 -37 30 -21 4 -64 13
-96 21 -80 19 -97 18 -97 -6 0 -21 23 -37 85 -56 l40 -13 -35 0 c-63 -2 -202
-33 -207 -48 -8 -21 12 -36 47 -36 16 0 30 -4 30 -9 0 -4 -5 -8 -11 -8 -6 0
-9 -9 -6 -20 6 -24 -10 -26 -33 -5 -26 23 -50 9 -50 -30 0 -19 6 -37 13 -42 6
-4 41 -7 77 -6 l65 1 -60 -7 c-68 -8 -105 -25 -105 -46 0 -36 74 -44 178 -20
63 15 164 9 223 -14 l24 -9 -28 -11 c-37 -14 -58 -14 -141 4 -63 13 -73 12
-103 -2 -69 -32 -30 -73 70 -73 29 0 59 -5 67 -11 11 -7 -29 -9 -138 -6 -117
3 -155 1 -163 -9 -6 -7 -8 -18 -4 -24 4 -6 -6 -10 -24 -10 -16 0 -32 -4 -35
-9 -12 -19 15 -62 46 -76 l33 -14 -30 -1 c-17 0 -49 -9 -70 -20 l-40 -20 34
32 c40 36 34 57 -19 71 -27 7 -43 3 -94 -22 -66 -33 -153 -96 -170 -123 -8
-13 -7 -21 1 -29 17 -17 92 -14 136 5 52 21 46 6 -8 -23 -45 -24 -60 -56 -31
-67 51 -20 326 115 326 159 0 6 -7 15 -15 21 -12 8 8 10 79 8 92 -4 95 -3 111
22 10 14 15 34 13 44 -4 15 1 17 33 14 33 -3 44 1 71 29 24 24 57 40 121 60
79 24 125 54 127 81 0 13 -58 38 -137 58 -61 15 -67 18 -30 14 27 -3 67 -12
90 -21 23 -8 62 -18 87 -22 l45 -7 -44 -43 c-24 -24 -72 -56 -106 -71 -33 -15
-117 -62 -185 -105 -250 -157 -397 -227 -658 -315 -180 -60 -228 -66 -354 -46
-54 9 -121 17 -150 18 -29 0 21 5 112 9 110 5 204 16 284 33 125 26 165 48
152 81 -8 21 -32 18 -161 -19 -103 -30 -286 -51 -360 -42 -27 3 -159 30 -293
58 -168 36 -237 55 -226 61 15 9 44 6 75 -7 10 -4 44 12 94 45 91 59 128 74
205 83 l55 6 -36 -14 c-113 -44 -197 -117 -161 -140 14 -8 210 30 333 64 219
62 299 103 299 151 0 22 -28 38 -39 22 -22 -34 -151 -66 -246 -61 l-60 3 120
39 c66 21 135 40 153 41 64 4 69 45 6 45 l-35 0 20 26 c23 30 28 70 9 77 -7 2
-62 -13 -122 -35 -60 -21 -111 -37 -113 -35 -8 9 117 66 189 87 82 24 104 39
94 66 -6 16 -32 16 -81 -2 -19 -6 -18 -5 2 15 29 28 20 55 -16 48 -14 -2 -63
-20 -108 -40 -46 -20 -83 -34 -83 -32 0 10 148 80 220 104 60 21 76 30 78 48
3 18 -3 23 -35 29 -29 6 -56 1 -113 -19 -52 -18 -68 -21 -50 -9 67 47 189 155
195 173 6 19 -7 38 -26 39 -16 0 -265 -157 -492 -311 -142 -96 -292 -196 -335
-223 -42 -26 -80 -53 -84 -60 -15 -22 -3 -41 25 -39 28 2 79 32 287 171 93 63
116 75 92 49 -24 -25 -32 -41 -28 -55 5 -16 -2 -23 -46 -42 -29 -12 -80 -38
-113 -58 -33 -19 -98 -49 -145 -66 -80 -29 -85 -33 -88 -62 -2 -19 3 -36 13
-44 16 -13 39 -6 158 44 20 9 37 15 37 13 0 -3 -36 -26 -80 -53 -53 -32 -80
-54 -80 -66 0 -10 -6 -21 -14 -24 -8 -3 -20 -19 -27 -35 -14 -36 -4 -51 38
-54 15 -1 62 -11 103 -22 41 -12 118 -27 170 -34 52 -7 99 -16 103 -19 5 -4
-20 -11 -55 -14 -53 -6 -79 -2 -167 23 -131 38 -222 47 -292 31 -39 -10 -54
-10 -57 -1 -2 6 -13 11 -24 11 -30 0 -20 -42 13 -51 14 -3 77 -7 140 -8 94 -1
128 -6 194 -28 87 -29 138 -32 277 -19 70 7 93 6 120 -7 18 -8 89 -25 158 -36
69 -12 148 -30 175 -39 l50 -17 -115 -7 c-401 -23 -826 -21 -760 4 31 12 70
47 70 65 0 7 -12 21 -27 30 -23 16 -51 18 -199 18 l-171 -1 18 41 c23 50 24
71 2 84 -12 6 8 8 63 4 75 -5 82 -4 109 19 26 23 29 31 33 109 3 61 0 89 -10
102 -13 18 -18 16 -84 -29 -149 -102 -181 -139 -149 -174 15 -16 13 -18 -24
-24 -21 -3 -46 -9 -55 -12 -10 -4 -4 14 19 52 19 32 35 64 35 71 0 7 15 19 33
26 17 8 75 54 127 103 52 49 131 117 175 150 152 115 534 362 781 505 93 54
505 269 515 269 2 0 5 -10 5 -23 1 -19 -9 -27 -70 -52 -119 -48 -224 -103
-240 -127 -19 -27 -21 -68 -3 -69 31 -3 58 7 169 63 65 33 121 59 123 57 10
-11 -130 -90 -205 -117 -127 -45 -140 -52 -140 -79 0 -12 5 -23 12 -23 6 0 3
-6 -7 -14 -23 -16 -14 -46 14 -46 29 0 136 42 239 93 103 51 198 86 267 98 81
14 95 19 95 34 0 8 -11 22 -24 30 -68 45 39 88 125 50 l34 -14 -65 2 c-52 2
-65 -1 -68 -14 -6 -33 72 -60 209 -72 69 -6 133 -8 142 -4 10 3 17 17 17 30 0
18 -9 28 -32 38 l-32 13 32 8 c55 14 33 68 -27 68 -11 0 -23 5 -26 10 -4 6 17
10 57 10 61 -1 63 -1 79 -34 14 -30 14 -33 -1 -29 -40 11 -52 -66 -13 -82 10
-4 70 -9 133 -11 63 -1 162 -8 220 -15 58 -7 122 -9 143 -5 33 6 37 10 37 36
0 16 -5 32 -11 36 -7 4 0 12 17 20 42 21 77 79 69 115 -4 17 -13 29 -23 30
-10 0 -3 7 16 15 23 10 32 21 32 37 0 13 5 28 12 35 9 9 9 15 -1 25 -16 16
-113 13 -261 -8 -178 -25 -185 -27 -188 -56 -5 -45 27 -62 115 -62 75 0 77
-15 2 -16 -86 -2 -67 -58 27 -86 30 -9 54 -17 54 -20 0 -2 -15 -3 -32 -3 -18
1 -80 -2 -138 -6 -67 -5 -114 -4 -130 2 -24 10 -24 11 10 12 63 3 85 14 85 40
0 20 -6 26 -27 28 -33 4 -37 17 -8 25 11 3 20 14 20 25 0 15 -11 22 -45 31
-37 9 -66 8 -148 -5 -88 -15 -111 -16 -172 -4 -38 7 -108 16 -154 19 l-85 6
83 34 c82 34 247 80 286 80 11 0 -24 -15 -77 -32z m-5338 -166 c70 -25 47 -26
-51 -3 l-76 19 -44 -24 c-41 -21 -55 -23 -187 -22 -149 1 -172 -5 -172 -42 0
-15 8 -19 38 -20 20 0 45 -3 54 -7 25 -10 -349 -5 -402 5 -40 8 -28 11 103 22
167 14 197 21 197 50 0 22 -23 30 -148 52 -39 7 -70 14 -67 17 2 2 112 -10
244 -29 207 -28 245 -31 280 -20 30 8 41 17 41 31 0 11 -6 20 -14 20 -8 0 -17
4 -21 9 -6 11 140 -27 225 -58z m5269 -17 c2 -2 -5 -4 -15 -4 -11 0 -25 -5
-31 -11 -8 -8 -20 -7 -44 4 -19 9 -43 18 -54 21 -11 2 16 2 60 -1 44 -3 82 -7
84 -9z m-273 -34 c0 -16 -7 -20 -31 -20 -16 0 -46 -4 -64 -10 -60 -17 -45 -4
26 23 37 14 68 26 68 26 1 1 1 -8 1 -19z m271 -47 c-1 -1 -14 1 -29 4 -17 3
-25 10 -21 19 4 11 9 10 28 -4 13 -9 22 -18 22 -19z m-5779 -100 c-10 -2 -28
-2 -40 0 -13 2 -5 4 17 4 22 1 32 -1 23 -4z m6097 -93 l50 -7 -45 -1 c-25 0
-67 3 -95 8 l-50 7 45 1 c25 0 68 -3 95 -8z m98 -17 c-7 -2 -19 -2 -25 0 -7 3
-2 5 12 5 14 0 19 -2 13 -5z m-2470 -64 c21 -6 37 -14 35 -18 -2 -4 -17 -36
-35 -72 -18 -35 -37 -79 -44 -97 -15 -42 -46 -54 -118 -47 -31 4 -74 2 -97 -3
-40 -9 -41 -9 -42 18 -1 26 0 27 39 16 37 -10 41 -8 74 24 20 19 52 63 71 97
34 61 59 93 72 93 4 0 24 -5 45 -11z m1977 -79 c-14 -4 -38 -8 -55 -8 -29 1
-29 1 5 8 50 11 83 11 50 0z m128 -67 c14 -23 14 -23 -29 -22 -55 1 -144 16
-109 18 14 1 41 8 60 15 46 18 59 16 78 -11z m-1229 13 c-2 -2 -15 -9 -29 -15
-24 -11 -24 -11 -6 3 16 13 49 24 35 12z m-4189 -92 c0 -21 -5 -24 -37 -24
-34 1 -36 2 -18 12 27 15 34 28 27 47 -5 14 -3 14 11 2 9 -7 17 -24 17 -37z
m5716 3 c2 -2 -7 -14 -21 -27 -20 -19 -25 -20 -25 -7 0 9 -13 23 -30 32 -16 9
-30 17 -30 19 0 4 101 -12 106 -17z m-1486 -72 c0 -3 -67 -38 -148 -78 -126
-61 -147 -69 -138 -49 8 16 47 37 146 76 158 64 140 57 140 51z m-2055 -170
c31 -36 61 -65 66 -65 5 0 51 -16 102 -36 l92 -36 151 12 c111 9 157 9 172 1
11 -6 68 -11 125 -11 124 0 158 11 231 78 111 102 99 95 134 75 18 -10 32 -25
32 -34 0 -47 -82 -232 -112 -254 -11 -7 -63 -21 -115 -31 -130 -25 -217 -9
-319 56 l-31 20 -96 -40 c-102 -43 -238 -68 -301 -56 -50 9 -102 72 -198 236
-68 115 -76 137 -51 143 48 13 61 6 118 -58z m2204 61 c-11 -11 -190 -57 -262
-66 -44 -6 -115 -22 -156 -35 -41 -13 -77 -23 -79 -21 -6 7 63 44 131 71 58
24 72 26 91 15 19 -10 35 -9 87 5 85 23 199 42 188 31z m791 -65 c61 -11 4
-12 -65 -1 -41 6 -44 7 -15 8 19 0 55 -3 80 -7z m-280 -125 c0 -2 -8 -10 -17
-17 -16 -13 -17 -12 -4 4 13 16 21 21 21 13z m-2055 -221 c71 -18 131 -19 209
-4 51 11 78 8 64 -7 -14 -13 -236 -21 -306 -10 -65 10 -76 15 -88 39 -18 34
-29 34 -50 2 -24 -37 -125 -65 -233 -65 -47 0 -100 -4 -117 -9 -24 -7 -36 -5
-55 10 -34 26 -16 41 36 29 47 -11 216 4 275 25 22 8 56 25 76 38 l36 25 46
-29 c26 -15 74 -35 107 -44z m465 6 c0 -18 -41 -59 -64 -63 l-25 -5 20 28 c27
38 69 63 69 40z m-1142 -66 c97 -46 96 -68 -2 -46 -35 9 -96 54 -96 73 0 15
25 8 98 -27z m-1203 -45 l80 -8 -90 2 c-51 1 -99 7 -110 15 -18 11 -17 12 10
5 17 -3 66 -10 110 -14z m2202 -62 c-7 -49 -21 -65 -174 -190 -93 -75 -127
-110 -144 -144 -21 -44 -21 -48 -6 -80 19 -40 53 -46 82 -14 16 17 31 20 112
20 59 0 106 5 128 14 38 16 55 7 29 -15 -27 -23 -95 -36 -134 -27 -46 12 -111
-9 -125 -39 -7 -17 -15 -21 -35 -16 -14 3 -29 10 -35 14 -5 5 -18 9 -30 9 -20
0 -20 3 -14 68 9 80 20 121 49 168 17 27 27 33 42 28 12 -3 26 1 36 10 9 9 32
28 50 43 35 27 152 178 152 195 0 5 5 6 11 2 7 -4 9 -22 6 -46z m468 43 c17
-7 15 -9 -15 -19 -94 -29 -329 -47 -350 -26 -9 9 -3 15 22 23 78 26 297 40
343 22z m-1440 -46 c51 -10 112 -75 70 -75 -9 0 -20 -12 -25 -26 -17 -43 -12
-79 15 -104 32 -30 32 -43 1 -29 -17 8 -31 31 -49 78 l-24 66 26 5 c37 7 39
37 4 50 -15 5 -36 15 -45 20 -25 14 -64 12 -128 -5 -75 -21 -174 -20 -251 1
l-64 19 45 7 c25 3 83 7 130 8 47 1 112 5 145 9 40 4 69 3 85 -5 14 -7 44 -15
65 -19z m-803 -9 c53 -9 116 -15 140 -14 24 1 88 -11 143 -26 141 -39 255 -44
364 -17 46 12 85 20 87 19 2 -2 1 -14 -2 -25 -5 -17 -18 -25 -61 -33 -63 -13
-120 -9 -313 25 -262 47 -635 60 -800 29 -47 -9 -159 -19 -250 -23 -140 -7
-173 -11 -218 -31 -29 -12 -59 -32 -67 -44 -23 -32 -18 -80 10 -114 15 -18 25
-42 25 -61 0 -39 24 -87 49 -101 11 -5 39 -10 63 -10 37 -1 46 -5 63 -33 15
-24 33 -35 71 -45 39 -11 53 -20 63 -43 21 -48 77 -84 130 -84 33 0 50 -5 59
-17 19 -26 66 -48 100 -48 17 0 32 -6 36 -15 6 -17 1 -17 -134 22 -145 41
-245 98 -511 289 -123 88 -149 122 -149 195 0 107 100 156 383 188 93 10 173
23 177 27 16 16 436 8 542 -10z m3353 14 c-7 -12 -59 -12 -95 0 -19 6 -9 8 38
9 40 1 61 -3 57 -9z m250 -29 c133 -42 140 -52 94 -143 -89 -177 -292 -373
-489 -473 -80 -40 -224 -77 -286 -73 l-47 3 66 33 c36 17 77 32 92 32 16 0 38
12 57 30 16 17 36 30 43 30 27 0 45 13 45 31 0 10 6 19 13 19 43 0 125 36 161
70 23 22 56 51 74 66 48 39 57 60 37 90 -15 23 -15 24 10 24 14 0 45 9 70 21
47 22 59 50 33 78 -11 11 -10 14 1 19 24 8 51 41 51 62 0 25 -62 65 -115 75
-33 6 -37 9 -20 15 30 13 45 11 110 -9z m-1707 -37 c7 -5 -21 -48 -47 -70 -25
-24 -26 -24 -7 -39 19 -14 19 -15 -7 -15 -18 0 -52 -21 -105 -64 -73 -59 -162
-114 -162 -100 0 23 44 68 121 122 86 60 149 132 149 169 0 10 8 11 28 7 15
-4 28 -8 30 -10z m317 -13 c61 -6 209 -11 330 -12 241 -3 233 -11 -28 -28
-120 -8 -182 -8 -260 2 -56 6 -150 12 -209 12 -60 0 -108 2 -108 5 1 14 18 29
40 33 26 5 53 4 235 -12z m1177 8 c110 -12 170 -28 170 -44 0 -5 -20 -16 -44
-23 -49 -15 -104 -11 -308 19 -74 10 -182 23 -240 27 l-105 8 110 7 c61 5 124
9 140 11 74 7 182 5 277 -5z m-2317 -56 c11 -29 40 -72 75 -108 104 -108 126
-158 97 -215 -11 -22 -21 -26 -82 -31 -39 -4 -101 -9 -140 -13 -55 -5 -64 -4
-40 4 17 6 43 12 60 13 43 3 42 26 -5 85 -37 47 -39 52 -21 52 14 0 25 9 31
25 10 27 19 26 65 -8 15 -12 17 -18 8 -29 -7 -8 -13 -31 -15 -52 -2 -42 11
-56 55 -56 23 0 31 7 43 36 15 35 14 38 -12 75 -43 62 -100 109 -133 109 -22
0 -37 12 -75 60 -26 33 -42 60 -36 60 6 0 25 -20 42 -45 18 -25 40 -45 50 -45
17 0 18 6 12 65 -4 36 -5 65 -2 65 3 0 13 -21 23 -47z m-1229 22 c-27 -20
-120 -54 -180 -66 -27 -5 -117 -9 -201 -9 -173 0 -232 -9 -317 -47 -59 -26
-61 -26 -74 -8 -26 35 -17 55 34 77 38 17 78 23 212 30 91 4 197 14 235 22 39
7 124 14 190 15 108 0 118 -1 101 -14z m389 -11 c77 -9 169 -19 205 -23 l65
-7 -80 -12 c-146 -23 -263 -26 -356 -8 -47 9 -107 16 -132 16 l-47 0 32 30
c37 34 35 34 313 4z m1945 -40 c74 -9 189 -16 255 -16 66 0 181 7 255 16 184
22 258 20 487 -10 109 -14 232 -27 273 -29 41 -2 78 -4 83 -4 4 -1 7 -5 7 -10
0 -26 -73 -30 -426 -25 -230 3 -385 1 -420 -5 -45 -9 -61 -8 -84 4 -18 9 -57
15 -98 15 -39 0 -114 9 -167 20 -54 11 -149 27 -213 35 -64 9 -118 18 -121 20
-7 8 26 6 169 -11z m-1417 -23 c4 -17 -5 -22 -72 -36 -111 -25 -176 -52 -270
-111 -47 -30 -101 -56 -120 -60 -20 -3 -75 -14 -122 -25 -48 -10 -97 -19 -110
-19 -24 0 -24 0 5 23 20 16 27 29 23 40 -5 13 0 17 22 17 15 0 77 15 137 34
60 19 138 42 174 51 71 18 93 32 86 50 -5 14 63 25 151 25 42 0 54 4 63 20 12
23 25 20 33 -9z m1467 -46 c74 -19 143 -35 154 -35 10 0 26 -10 36 -22 10 -13
49 -41 87 -62 52 -30 68 -43 59 -51 -8 -9 -20 -7 -52 6 -37 17 -92 31 -164 43
-14 2 -50 20 -80 40 -58 38 -163 82 -245 102 l-50 12 60 1 c39 1 108 -11 195
-34z m-2347 -3 c-15 -12 -56 -36 -90 -53 -61 -31 -63 -31 -132 -19 -85 14
-117 9 -285 -42 -146 -45 -228 -57 -251 -38 -8 7 -15 29 -15 49 0 36 1 37 69
64 84 32 198 46 386 48 77 1 150 4 163 7 13 4 59 7 103 7 l80 0 -28 -23z m325
18 l177 -1 -100 -35 c-149 -53 -148 -53 -316 -56 l-156 -3 51 21 c81 33 136
63 136 75 0 6 7 8 16 5 9 -3 95 -6 192 -6z m596 -56 c3 -9 6 -28 6 -44 0 -27
20 -50 76 -88 17 -11 17 -12 -6 -6 -14 4 -36 15 -49 25 -13 11 -34 19 -46 19
-32 0 -120 -82 -139 -130 -9 -22 -54 -88 -101 -146 -87 -108 -105 -148 -63
-142 12 2 36 23 54 48 18 25 46 61 63 80 l30 35 -10 -45 c-24 -108 -84 -150
-214 -149 -44 1 -91 4 -104 8 -22 6 -22 7 -6 21 9 7 37 50 63 94 44 77 197
246 222 246 6 0 -18 -33 -52 -73 -195 -224 -216 -257 -175 -265 25 -5 47 17
130 128 39 52 94 119 124 147 57 57 67 83 31 83 -22 1 -22 1 4 23 15 12 51 31
78 42 59 23 85 47 76 71 -9 24 -46 12 -156 -53 -73 -43 -119 -80 -201 -163
-61 -62 -116 -128 -128 -154 -20 -40 -25 -44 -41 -33 -16 9 -17 14 -6 27 7 8
59 70 116 138 56 67 118 135 137 151 40 33 214 109 274 120 4 0 10 -6 13 -15z
m1793 -20 c12 -8 27 -14 32 -14 6 0 35 -15 64 -34 127 -81 262 -142 343 -155
82 -14 114 -25 114 -41 0 -17 -46 -11 -122 16 -77 27 -518 239 -518 248 0 9
64 -6 87 -20z m-412 -34 c118 -57 338 -245 373 -320 19 -40 55 -49 60 -15 5
33 -53 109 -141 186 -81 72 -78 80 13 34 54 -28 83 -54 114 -103 35 -57 53
-69 72 -50 19 19 10 39 -44 107 l-36 44 30 -7 c16 -4 87 -45 158 -92 70 -46
132 -84 137 -84 5 0 9 -4 9 -8 0 -15 -89 -51 -142 -58 -29 -4 -58 -10 -63 -15
-6 -4 -31 -13 -56 -19 -40 -10 -53 -9 -119 14 -95 33 -115 33 -132 -1 -35 -75
-208 -105 -299 -51 -79 46 -156 147 -184 238 -4 14 -25 61 -47 104 -29 59 -37
85 -31 99 14 31 86 -88 123 -205 33 -102 59 -146 78 -134 20 12 13 58 -23 146
-38 95 -22 82 32 -25 20 -38 44 -82 55 -97 22 -32 58 -38 58 -10 0 18 -62 122
-159 265 -28 42 -50 77 -48 77 17 0 76 -32 92 -50 11 -12 47 -74 80 -138 47
-91 65 -118 83 -120 35 -5 28 41 -22 136 -41 79 -42 82 -17 66 100 -65 251
-198 251 -221 0 -20 44 -13 48 7 8 44 -202 223 -373 318 -78 43 -32 32 70 -18z
m635 30 c36 -6 85 -20 110 -32 69 -32 145 -57 264 -88 118 -30 119 -32 27 -65
-32 -11 -41 -11 -52 0 -8 8 -57 23 -109 35 -112 25 -151 41 -247 104 -96 62
-96 62 7 46z m542 -24 c32 -4 60 -11 63 -16 7 -11 -41 -49 -73 -57 -13 -3 -50
0 -81 7 -54 12 -178 56 -193 69 -10 8 213 6 284 -3z m-3652 -32 c-153 -71
-247 -106 -312 -120 -68 -14 -73 -14 -97 4 -14 10 -26 23 -28 28 -2 6 45 25
104 42 148 43 189 51 258 53 33 0 71 5 85 9 49 16 44 9 -10 -16z m280 -41
c-38 -22 -100 -74 -150 -125 -148 -151 -185 -171 -228 -125 l-22 23 68 55 c91
74 126 99 202 144 36 21 69 45 73 52 5 8 29 13 65 13 l57 0 -65 -37z m-180 22
c0 -2 -14 -12 -31 -20 -17 -9 -71 -54 -120 -99 -134 -126 -177 -139 -228 -68
l-21 30 66 22 c37 12 99 37 138 57 39 20 98 46 131 59 70 27 65 25 65 19z
m558 -85 c-57 -66 -150 -144 -213 -181 l-40 -24 28 36 c15 20 56 57 92 84 46
34 65 54 65 70 0 17 9 24 38 33 20 6 46 18 57 26 11 9 21 16 23 16 2 0 -21
-27 -50 -60z m612 19 c12 -7 11 -8 -5 -8 -11 0 -31 6 -45 14 l-25 15 30 -6
c17 -4 37 -10 45 -15z m-247 -60 c-5 -25 -2 -31 16 -36 21 -5 21 -7 -9 -24
-17 -11 -37 -34 -45 -52 l-14 -32 -1 28 c0 16 9 40 20 54 22 28 27 63 8 63 -9
0 19 28 29 30 1 0 0 -14 -4 -31z m657 21 c12 -8 11 -10 -6 -10 -30 0 -52 -29
-60 -78 l-7 -43 -18 53 c-10 29 -14 54 -10 56 5 1 17 9 27 17 22 17 53 19 74
5z m-1273 -104 c-56 -57 -112 -109 -124 -115 -24 -12 -83 -15 -83 -4 0 3 31
38 68 77 37 39 78 84 89 99 21 27 62 41 135 46 10 0 -27 -43 -85 -103z m1544
84 l44 -20 -64 0 c-63 0 -64 0 -46 20 22 24 14 24 66 0z m-1656 1 c7 -12 -101
-142 -151 -182 -25 -20 -48 -29 -73 -29 -72 0 -66 12 61 118 116 96 149 115
163 93z m1873 -28 c2 -9 -6 -11 -30 -7 -50 10 -60 26 -14 22 22 -2 41 -9 44
-15z m-1048 -3 c-14 -4 -32 -8 -40 -9 -13 -1 -13 0 0 9 8 5 26 9 40 9 l25 -1
-25 -8z m665 -20 c17 -7 100 -15 185 -19 156 -7 208 -19 218 -50 4 -11 -1 -12
-19 -6 -38 12 -306 17 -401 8 l-88 -9 0 26 c0 14 -3 35 -6 47 -6 21 -4 22 37
19 24 -2 58 -9 74 -16z m-249 -30 l12 -35 -167 -6 c-162 -6 -218 -16 -325 -58
-34 -14 -40 -10 -33 21 14 54 28 61 143 71 60 5 150 17 199 27 50 10 106 18
125 17 31 -2 36 -6 46 -37z m1654 30 c8 -5 11 -10 5 -10 -5 0 -17 5 -25 10 -8
5 -10 10 -5 10 6 0 17 -5 25 -10z m50 -20 c8 -5 11 -10 5 -10 -5 0 -17 5 -25
10 -8 5 -10 10 -5 10 6 0 17 -5 25 -10z m98 -25 c1 -1 -3 -7 -10 -12 -9 -7
-22 -5 -43 9 l-30 19 40 -7 c22 -4 41 -8 43 -9z m-2795 -191 c20 -15 20 -15 2
-10 -69 19 -121 26 -205 26 -95 1 -95 1 -55 15 22 8 65 15 95 15 31 0 73 8 95
19 l40 18 3 -34 c2 -19 12 -39 25 -49z m-377 37 c5 -5 20 -11 34 -14 14 -2 -2
-5 -35 -5 -55 -1 -58 0 -41 13 23 17 29 18 42 6z m1356 -3 c15 -2 31 -40 29
-64 -1 -4 -31 -9 -68 -11 -38 -2 -149 -24 -249 -48 -183 -46 -244 -54 -244
-34 0 7 21 33 48 59 50 51 96 69 237 96 59 11 184 12 247 2z m352 -23 c177
-18 240 -19 268 -4 14 8 23 8 31 0 11 -11 49 -103 44 -108 -2 -1 -32 10 -67
24 -59 24 -81 27 -235 32 -172 6 -182 8 -222 44 -31 27 -29 38 5 32 15 -3 94
-12 176 -20z m170 -184 c110 -13 174 -25 183 -34 18 -18 20 -72 3 -92 -17 -21
-42 -19 -300 19 l-225 33 -6 37 c-4 28 -2 39 10 46 25 15 152 11 335 -9z
m-481 -67 l15 -46 -32 6 c-17 4 -74 9 -126 12 -94 6 -96 6 -198 -35 -126 -50
-146 -51 -172 -8 -11 17 -20 37 -20 43 0 6 26 14 58 18 31 3 127 17 212 30 85
14 176 25 201 25 l47 1 15 -46z"/>
<path d="M1130 3671 c-67 -5 -75 -8 -78 -28 -4 -27 37 -38 108 -28 63 9 89 27
71 49 -7 9 -16 15 -20 14 -3 -1 -40 -4 -81 -7z"/>
<path d="M810 3523 c-38 -6 -243 -74 -257 -86 -18 -13 -16 -36 2 -43 8 -4 64
12 125 35 90 34 121 41 180 41 55 0 72 3 77 16 3 8 2 19 -3 23 -11 10 -91 19
-124 14z"/>
<path d="M2117 3522 c-12 -2 -17 -11 -15 -25 2 -17 33 -37 137 -88 111 -55
143 -76 190 -126 48 -50 79 -70 182 -120 94 -46 152 -83 238 -152 113 -91 143
-105 155 -75 14 37 -174 176 -356 263 -94 46 -132 69 -153 97 -15 20 -50 51
-79 69 -110 70 -282 160 -299 157z"/>
<path d="M1278 3409 c-32 -5 -84 -12 -115 -16 -49 -7 -58 -11 -58 -28 0 -19 7
-20 95 -20 52 0 101 -4 108 -8 21 -14 77 25 77 54 0 28 -19 32 -107 18z"/>
<path d="M2150 3353 c0 -9 7 -25 17 -35 15 -17 15 -18 -10 -18 -53 0 -46 -50
11 -79 65 -31 170 -55 187 -41 18 15 105 -21 105 -45 0 -8 7 -18 15 -21 14 -6
13 -8 -1 -19 -10 -7 -15 -20 -12 -31 4 -16 -14 -10 -101 34 -58 30 -125 65
-148 78 -61 35 -97 28 -74 -14 11 -21 117 -80 201 -111 36 -14 71 -37 100 -67
36 -37 40 -45 23 -40 -13 3 -33 9 -45 12 -13 4 -35 21 -50 39 -17 20 -69 54
-133 85 -112 57 -129 57 -123 4 2 -20 10 -30 30 -35 15 -4 37 -14 50 -24 23
-16 22 -16 -22 -10 -55 7 -73 -3 -68 -41 2 -24 7 -29 28 -27 49 3 345 -59 403
-84 31 -14 56 -27 54 -29 -2 -2 -68 14 -148 35 -270 73 -310 75 -278 14 8 -16
18 -32 24 -36 5 -4 -3 -5 -20 -1 -16 3 -36 14 -43 22 -16 21 -38 9 -70 -39
-37 -54 -28 -73 43 -82 33 -4 91 -6 130 -5 58 3 70 6 73 21 2 10 -5 25 -15 32
-10 8 -14 15 -10 15 19 0 64 -31 94 -65 l32 -36 177 3 c157 3 177 5 189 22 13
17 16 17 82 -5 84 -28 68 -37 -62 -38 -49 -1 -146 -8 -215 -16 -69 -8 -146
-15 -173 -15 -44 0 -46 1 -35 20 7 10 10 22 7 24 -3 3 -64 8 -135 11 -71 3
-142 8 -157 11 -27 6 -57 -9 -57 -27 0 -5 12 -15 28 -23 l27 -15 -30 5 c-40 6
-64 -9 -49 -33 10 -16 32 -18 210 -21 229 -4 603 13 718 33 105 18 150 60 91
87 -19 8 -23 16 -19 34 4 16 -1 27 -18 38 -32 21 -135 56 -164 56 -29 0 -39
-16 -24 -35 7 -8 10 -15 8 -15 -13 0 -119 40 -144 55 -27 15 -28 16 -4 10 14
-3 49 -8 78 -12 48 -5 52 -4 52 16 0 11 2 21 4 21 29 0 161 -43 184 -60 32
-23 62 -22 62 4 0 19 -49 59 -102 83 -53 24 -238 83 -260 83 -15 0 -168 78
-168 85 0 2 32 -7 71 -21 83 -29 113 -28 117 2 4 25 -64 70 -193 130 -42 19
-106 55 -143 78 -130 84 -202 108 -202 69z m465 -379 c28 -10 59 -24 70 -32
18 -13 17 -13 -15 -7 -94 18 -152 39 -170 63 -30 38 -24 43 23 18 23 -13 65
-32 92 -42z m299 -194 c7 -7 1 -7 -19 -1 -54 17 -61 21 -25 16 19 -3 39 -10
44 -15z"/>
<path d="M1634 3095 c-9 -22 4 -35 57 -60 27 -12 46 -25 42 -29 -3 -3 -40 -7
-82 -7 -109 -2 -135 -9 -139 -38 -4 -23 -2 -24 35 -16 21 5 71 8 111 7 76 -3
112 8 112 34 0 10 6 13 19 9 10 -3 38 -11 62 -18 l44 -13 -40 -8 c-22 -4 -66
-21 -97 -37 -39 -19 -66 -27 -82 -23 -17 4 -25 1 -30 -12 -15 -38 50 -57 102
-30 15 7 38 17 52 21 22 7 23 6 11 -8 -20 -25 -6 -45 41 -57 24 -7 61 -22 83
-34 45 -26 65 -24 65 7 0 12 9 33 20 47 25 33 25 37 -7 65 -38 33 -67 33 -61
0 5 -22 2 -25 -21 -24 -14 0 -44 3 -66 7 l-40 8 46 12 c47 12 71 39 47 53 -7
5 13 5 44 2 49 -5 59 -3 64 12 5 12 1 22 -12 31 -10 7 -25 18 -32 24 -7 6 -16
9 -20 6 -4 -3 -72 15 -151 40 -157 49 -169 51 -177 29z"/>
<path d="M1393 3078 c-32 -15 -29 -46 5 -55 36 -9 142 -10 165 -1 14 6 16 12
8 27 -20 37 -127 54 -178 29z"/>
<path d="M1270 2987 c-68 -16 -120 -43 -120 -62 0 -23 36 -54 93 -81 63 -29
70 -29 105 -5 16 11 51 21 87 24 l60 5 -59 -19 c-71 -22 -80 -30 -72 -63 6
-24 11 -26 57 -26 56 0 89 13 89 35 0 10 17 15 67 17 56 2 68 6 71 21 3 12 -6
21 -28 29 -20 7 -28 13 -20 18 7 4 10 16 8 26 -2 14 -13 20 -43 22 -51 4 -190
-16 -233 -34 -30 -12 -36 -12 -60 4 l-26 17 49 12 c28 6 69 12 93 12 43 1 65
22 45 42 -16 16 -105 19 -163 6z"/>
<path d="M3055 2874 c-9 -9 -14 -22 -11 -30 3 -7 10 -32 16 -56 28 -101 59
-121 182 -116 57 3 63 5 66 26 3 17 -17 43 -82 107 -74 73 -91 85 -120 85 -19
0 -42 -7 -51 -16z"/>
<path d="M6464 3610 c-5 -5 -84 -33 -174 -61 -146 -45 -299 -102 -457 -170
-51 -22 -69 -41 -57 -61 4 -5 19 -8 35 -6 19 3 29 0 29 -8 0 -7 10 -16 22 -20
20 -6 19 -8 -14 -25 -38 -19 -68 -53 -68 -76 0 -27 69 -13 156 32 48 24 95 52
105 61 22 20 25 50 7 57 -11 4 37 29 110 58 13 5 22 17 22 29 0 11 7 20 15 20
8 0 15 -9 15 -19 0 -11 9 -23 20 -26 21 -7 123 11 153 26 24 14 21 38 -7 51
-24 10 -22 12 44 44 67 32 108 73 95 94 -8 13 -38 13 -51 0z m-355 -181 c-28
-22 -108 -53 -159 -63 l-35 -7 45 27 c98 59 212 92 149 43z"/>
<path d="M6530 3572 c-40 -35 -32 -58 21 -67 56 -10 99 2 99 27 0 11 -8 22
-19 25 -11 3 -21 13 -24 24 -7 27 -42 24 -77 -9z"/>
<path d="M6113 3363 c-18 -6 -16 -38 2 -53 25 -21 134 -15 158 9 41 41 -16 68
-88 41 -15 -6 -33 -6 -43 -1 -9 4 -23 6 -29 4z"/>
<path d="M6055 3266 c-20 -16 -27 -29 -23 -43 5 -18 0 -21 -47 -26 -76 -8 -99
-22 -92 -57 5 -22 2 -29 -12 -33 -10 -2 -25 -1 -32 4 -24 15 -76 10 -83 -7
-10 -26 -7 -62 6 -70 16 -10 74 -6 116 7 29 10 33 15 30 38 l-4 27 37 -20 c32
-18 43 -19 77 -10 30 8 41 8 48 -2 6 -8 48 -13 128 -16 104 -3 120 -1 130 14
8 14 7 21 -5 33 -18 19 -141 38 -181 29 -16 -3 -28 -1 -28 5 0 5 17 11 38 13
32 3 37 6 37 28 0 19 6 26 25 30 17 3 25 12 25 25 0 25 -35 41 -106 48 -48 4
-60 2 -84 -17z"/>
<path d="M5925 3043 c-24 -23 -14 -48 18 -48 41 1 33 -11 -17 -25 -55 -15 -73
-34 -78 -80 -3 -35 -3 -35 35 -34 22 1 56 13 85 31 42 26 47 33 47 66 l0 37
65 -6 c36 -3 71 -8 78 -10 21 -6 52 15 52 36 0 17 -7 20 -48 20 -27 0 -75 5
-108 10 -32 6 -71 12 -86 15 -17 3 -33 -2 -43 -12z"/>
<path d="M5761 2866 c-7 -8 -30 -17 -52 -21 -23 -4 -43 -14 -49 -25 -14 -26
-14 -26 20 -40 23 -10 40 -10 77 0 58 14 73 26 73 54 0 41 -45 62 -69 32z"/>
<path d="M5505 2792 c-34 -6 -100 -57 -100 -77 0 -19 8 -20 175 -18 198 1 275
15 275 48 0 19 -6 20 -111 17 -84 -3 -120 0 -145 11 -41 18 -68 24 -94 19z"/>
<path d="M4480 4022 c0 -29 26 -62 49 -62 28 0 71 31 71 52 0 18 -4 20 -34 15
-25 -4 -36 -1 -40 9 -3 8 -15 14 -26 14 -15 0 -20 -7 -20 -28z"/>
<path d="M3185 3896 c-75 -42 -48 -81 32 -46 36 16 44 24 41 42 -4 30 -24 31
-73 4z"/>
<path d="M4434 3905 c-7 -17 20 -63 41 -71 20 -8 77 35 73 55 -2 10 -14 16
-30 16 -15 1 -30 4 -34 8 -13 12 -44 7 -50 -8z"/>
<path d="M3424 3698 c-4 -7 2 -18 16 -27 13 -9 59 -46 102 -83 84 -73 108 -83
108 -44 0 27 -32 62 -114 123 -58 43 -98 54 -112 31z"/>
<path d="M4330 3677 c-100 -39 -238 -197 -172 -197 9 0 44 28 77 64 52 55 69
66 130 86 75 24 102 41 91 59 -11 17 -65 12 -126 -12z"/>
<path d="M3955 1300 c-44 -5 -120 -15 -169 -24 -49 -9 -136 -16 -193 -16 -102
0 -105 -1 -134 -29 -21 -22 -29 -39 -29 -66 0 -58 27 -101 112 -178 44 -40
136 -141 205 -225 125 -153 163 -189 183 -177 6 4 21 23 34 43 17 27 51 53
120 92 54 30 129 84 168 120 90 81 208 222 237 282 21 43 20 78 -1 78 -6 0
-16 6 -22 13 -11 14 -158 56 -284 82 -78 16 -101 16 -227 5z"/>
</g>
</svg>
